<svg width="16" height="16" viewBox="0 0 16 16" fill="none" xmlns="http://www.w3.org/2000/svg">
<path d="M14.4733 10.3867L11.46 7.38C11.5231 7.07292 11.5543 6.76016 11.5533 6.44667C11.5531 5.58711 11.3362 4.74147 10.9226 3.98793C10.5091 3.23438 9.91224 2.59726 9.18727 2.13543C8.46231 1.67361 7.63262 1.40199 6.7749 1.3457C5.91718 1.2894 5.05911 1.45023 4.28 1.81334C4.1813 1.85843 4.09509 1.92694 4.02886 2.01291C3.96264 2.09888 3.91841 2.19972 3.9 2.30667C3.88167 2.41226 3.88907 2.52072 3.92156 2.62284C3.95406 2.72497 4.01069 2.81775 4.08667 2.89334L6.98667 5.78667L5.78667 6.98667L2.89334 4.08667C2.81712 4.01187 2.72404 3.95648 2.62195 3.92516C2.51985 3.89383 2.41173 3.88749 2.30667 3.90667C2.20039 3.9244 2.09999 3.96763 2.01408 4.03265C1.92816 4.09766 1.85928 4.18254 1.81334 4.28C1.44902 5.06167 1.28833 5.92279 1.3462 6.78325C1.40407 7.6437 1.67864 8.47555 2.14435 9.20139C2.61006 9.92723 3.25178 10.5235 4.00983 10.9347C4.76788 11.3459 5.61762 11.5587 6.48 11.5533C6.79349 11.5543 7.10625 11.5231 7.41334 11.46L10.42 14.4733C10.482 14.5358 10.5557 14.5854 10.637 14.6193C10.7182 14.6531 10.8053 14.6705 10.8933 14.6705C10.9813 14.6705 11.0685 14.6531 11.1497 14.6193C11.231 14.5854 11.3047 14.5358 11.3667 14.4733C11.4292 14.4114 11.4788 14.3376 11.5126 14.2564C11.5464 14.1751 11.5639 14.088 11.5639 14C11.5639 13.912 11.5464 13.8249 11.5126 13.7436C11.4788 13.6624 11.4292 13.5886 11.3667 13.5267L8.1 10.26C8.01837 10.1789 7.91714 10.1203 7.80616 10.09C7.69517 10.0596 7.57822 10.0585 7.46667 10.0867C7.14479 10.1729 6.81322 10.2177 6.48 10.22C5.98137 10.2244 5.48679 10.1301 5.02476 9.94252C4.56274 9.75495 4.14239 9.47781 3.78793 9.12707C3.43348 8.77633 3.15192 8.35893 2.95948 7.8989C2.76705 7.43888 2.66753 6.94532 2.66667 6.44667C2.66581 6.22335 2.68365 6.00035 2.72 5.78L5.33334 8.4C5.39531 8.46249 5.46905 8.51209 5.55029 8.54593C5.63153 8.57978 5.71866 8.5972 5.80667 8.5972C5.89468 8.5972 5.98182 8.57978 6.06306 8.54593C6.14429 8.51209 6.21803 8.46249 6.28 8.4L8.4 6.26C8.52016 6.13569 8.58733 5.96956 8.58733 5.79667C8.58733 5.62378 8.52016 5.45765 8.4 5.33334L5.80667 2.72C6.02706 2.68401 6.25003 2.66617 6.47334 2.66667C7.4747 2.66844 8.43445 3.06746 9.14189 3.77616C9.84934 4.48486 10.2467 5.44531 10.2467 6.44667C10.2443 6.77989 10.1995 7.11145 10.1133 7.43334C10.0851 7.54489 10.0862 7.66184 10.1166 7.77282C10.147 7.88381 10.2056 7.98504 10.2867 8.06667L13.5533 11.3333C13.6789 11.4589 13.8491 11.5294 14.0267 11.5294C14.2042 11.5294 14.3745 11.4589 14.5 11.3333C14.6255 11.2078 14.6961 11.0375 14.6961 10.86C14.6961 10.6825 14.6255 10.5122 14.5 10.3867H14.4733Z" fill="#EEEEEE"/>
</svg>
