
<svg width="16" height="16" viewBox="0 0 16 16" fill="none" xmlns="http://www.w3.org/2000/svg">
<path d="M5.17543 8.05263C5.5244 8.05263 5.85908 7.914 6.10584 7.66725C6.3526 7.42049 6.49122 7.08581 6.49122 6.73684C6.49122 6.01053 6.22807 5.68421 5.96491 5.15789C5.4007 4.03 5.84701 3.02421 7.01754 2C7.2807 3.31579 8.07017 4.57895 9.1228 5.42105C10.1754 6.26316 10.7017 7.26316 10.7017 8.31579C10.7017 8.79961 10.6065 9.27869 10.4213 9.72568C10.2362 10.1727 9.96478 10.5788 9.62267 10.9209C9.28056 11.263 8.87441 11.5344 8.42743 11.7196C7.98044 11.9047 7.50136 12 7.01754 12C6.53372 12 6.05464 11.9047 5.60765 11.7196C5.16066 11.5344 4.75452 11.263 4.41241 10.9209C4.0703 10.5788 3.79892 10.1727 3.61377 9.72568C3.42862 9.27869 3.33333 8.79961 3.33333 8.31579C3.33333 7.70895 3.56122 7.10842 3.85964 6.73684C3.85964 7.08581 3.99827 7.42049 4.24503 7.66725C4.49179 7.914 4.82646 8.05263 5.17543 8.05263V8.05263Z" stroke="white" stroke-width="1.33333" stroke-linecap="round" stroke-linejoin="round"/>
</svg>
